<svg width="32" height="32" viewBox="0 0 32 32" fill="none" xmlns="http://www.w3.org/2000/svg">
<g id="Globe / Regular">
<path id="Vector" d="M24.75 7.875C24.75 9.32472 25.9253 10.5 27.375 10.5C27.7201 10.5 28 10.7799 28 11.125V20.875C28 21.2201 27.7201 21.5 27.375 21.5C25.9253 21.5 24.75 22.6753 24.75 24.125C24.75 24.4701 24.4701 24.75 24.125 24.75C22.6753 24.75 21.5 25.9253 21.5 27.375C21.5 27.7201 21.2201 28 20.875 28H11.125C10.7799 28 10.5 27.7201 10.5 27.375C10.5 25.9253 9.32472 24.75 7.875 24.75C7.52985 24.75 7.25 24.4701 7.25 24.125C7.25 22.6753 6.07472 21.5 4.625 21.5C4.27985 21.5 4 21.2201 4 20.875V11.125C4 10.7799 4.27985 10.5 4.625 10.5C6.07472 10.5 7.25 9.32472 7.25 7.875C7.25 7.52985 7.52985 7.25 7.875 7.25C9.32472 7.25 10.5 6.07472 10.5 4.625C10.5 4.27985 10.7799 4 11.125 4H20.875C21.2201 4 21.5 4.27985 21.5 4.625C21.5 6.07472 22.6753 7.25 24.125 7.25C24.4701 7.25 24.75 7.52985 24.75 7.875Z" stroke="white" stroke-width="2"/>
<ellipse id="Ellipse 1" cx="16" cy="16" rx="4" ry="12" stroke="white" stroke-width="2"/>
<path id="Vector 1" d="M4 16H28" stroke="white" stroke-width="2"/>
</g>
</svg>
