<?xml version="1.0" encoding="UTF-8"?>
<svg width="256px" height="256px" viewBox="0 0 256 256" version="1.1" xmlns="http://www.w3.org/2000/svg" xmlns:xlink="http://www.w3.org/1999/xlink">
    <title>Combined Shape</title>
    <g id="Page-1" stroke="none" stroke-width="1" fill="none" fill-rule="evenodd">
        <path d="M16,192 C24.8363,192 32,199.164 32,208 C32,216.836 39.1637,224 48,224 C56.8363,224 64,231.164 64,240 C64,248.836 71.1637,256 80,256 L0,256 L0,176 C0,184.836 7.16375,192 16,192 Z M256,176 L256,256 L176,256 C184.836,256 192,248.836 192,240 C192,231.164 199.164,224 208,224 C216.836,224 224,216.836 224,208 C224,199.164 231.164,192 240,192 C248.836,192 256,184.836 256,176 Z M256,80 C256,71.1637 248.836,64 240,64 C231.164,64 224,56.8363 224,48 C224,39.1637 216.836,32 208,32 C199.164,32 192,24.8363 192,16 C192,7.16375 184.836,0 176,0 L256,0 L256,80 Z M0,0 L80,0 C71.1637,0 64,7.16375 64,16 C64,24.8363 56.8363,32 48,32 C39.1637,32 32,39.1637 32,48 C32,56.8363 24.8363,64 16,64 C7.16375,64 0,71.1637 0,80 L0,0 Z" id="Combined-Shape" fill="#101010"></path>
    </g>
</svg>