<svg width="32" height="32" viewBox="0 0 32 32" fill="none" xmlns="http://www.w3.org/2000/svg">
<path id="Vector" d="M30 8C28.8955 8 28 7.10453 28 6C28 4.89547 27.1045 4 26 4C24.8955 4 24 3.10453 24 2C24 0.895469 23.1045 0 22 0H10C8.89547 0 8 0.895469 8 2C8 3.10453 7.10453 4 6 4C4.89547 4 4 4.89547 4 6C4 7.10453 3.10453 8 2 8C0.895469 8 0 8.89547 0 10V22C0 23.1045 0.895469 24 2 24C3.10453 24 4 24.8955 4 26C4 27.1045 4.89547 28 6 28C7.10453 28 8 28.8955 8 30C8 31.1045 8.89547 32 10 32H22C23.1045 32 24 31.1045 24 30C24 28.8955 24.8955 28 26 28C27.1045 28 28 27.1045 28 26C28 24.8955 28.8955 24 30 24C31.1045 24 32 23.1045 32 22V10C32 8.89547 31.1045 8 30 8Z" fill="#101010"/>
</svg>
