<?xml version="1.0" encoding="UTF-8"?>
<svg width="16px" height="16px" viewBox="0 0 16 16" version="1.1" xmlns="http://www.w3.org/2000/svg" xmlns:xlink="http://www.w3.org/1999/xlink">
    <title>Vector</title>
    <defs>
        <path d="M15,4 C14.4477344,4 14,3.55226564 14,3 C14,2.44773436 13.5522656,2 13,2 C12.4477344,2 12,1.55226564 12,1 C12,0.447734356 11.5522656,0 11,0 L5,0 C4.44773436,0 4,0.447734356 4,1 C4,1.55226564 3.55226564,2 3,2 C2.44773436,2 2,2.44773436 2,3 C2,3.55226564 1.55226564,4 1,4 C0.447734356,4 0,4.44773436 0,5 L0,11 C0,11.5522656 0.447734356,12 1,12 C1.55226564,12 2,12.4477344 2,13 C2,13.5522656 2.44773436,14 3,14 C3.55226564,14 4,14.4477344 4,15 C4,15.5522656 4.44773436,16 5,16 L11,16 C11.5522656,16 12,15.5522656 12,15 C12,14.4477344 12.4477344,14 13,14 C13.5522656,14 14,13.5522656 14,13 C14,12.4477344 14.4477344,12 15,12 C15.5522656,12 16,11.5522656 16,11 L16,5 C16,4.44773436 15.5522656,4 15,4 Z" id="path-1"></path>
    </defs>
    <g id="Page-1" stroke="none" stroke-width="1" fill="none" fill-rule="evenodd">
        <mask id="mask-2" fill="white">
            <use xlink:href="#path-1"></use>
        </mask>
        <use id="Vector" fill="#101010" fill-rule="nonzero" opacity="0.99" xlink:href="#path-1"></use>
    </g>
</svg>