<svg width="32" height="32" viewBox="0 0 32 32" fill="none" xmlns="http://www.w3.org/2000/svg">
<g id="Globe / Fill">
<path id="Vector" d="M27.375 9.5C26.4776 9.5 25.75 8.77243 25.75 7.875C25.75 6.97757 25.0224 6.25 24.125 6.25C23.2276 6.25 22.5 5.52243 22.5 4.625C22.5 3.72757 21.7724 3 20.875 3H11.125C10.2276 3 9.5 3.72757 9.5 4.625C9.5 5.52243 8.77243 6.25 7.875 6.25C6.97757 6.25 6.25 6.97757 6.25 7.875C6.25 8.77243 5.52243 9.5 4.625 9.5C3.72757 9.5 3 10.2276 3 11.125V20.875C3 21.7724 3.72757 22.5 4.625 22.5C5.52243 22.5 6.25 23.2276 6.25 24.125C6.25 25.0224 6.97757 25.75 7.875 25.75C8.77243 25.75 9.5 26.4776 9.5 27.375C9.5 28.2724 10.2276 29 11.125 29H20.875C21.7724 29 22.5 28.2724 22.5 27.375C22.5 26.4776 23.2276 25.75 24.125 25.75C25.0224 25.75 25.75 25.0224 25.75 24.125C25.75 23.2276 26.4776 22.5 27.375 22.5C28.2724 22.5 29 21.7724 29 20.875V11.125C29 10.2276 28.2724 9.5 27.375 9.5Z" fill="white"/>
</g>
</svg>
