<svg width="256" height="256" viewBox="0 0 256 256" fill="none" xmlns="http://www.w3.org/2000/svg">
<g id="Connector">
<path id="BG" d="M240 64C231.164 64 224 56.8363 224 48C224 39.1637 216.836 32 208 32C199.164 32 192 24.8363 192 16C192 7.16375 184.836 0 176 0H80C71.1637 0 64 7.16375 64 16C64 24.8363 56.8363 32 48 32C39.1637 32 32 39.1637 32 48C32 56.8363 24.8363 64 16 64C7.16375 64 0 71.1637 0 80V176C0 184.836 7.16375 192 16 192C24.8363 192 32 199.164 32 208C32 216.836 39.1637 224 48 224C56.8363 224 64 231.164 64 240C64 248.836 71.1637 256 80 256H176C184.836 256 192 248.836 192 240C192 231.164 199.164 224 208 224C216.836 224 224 216.836 224 208C224 199.164 231.164 192 240 192C248.836 192 256 184.836 256 176V80C256 71.1637 248.836 64 240 64Z" fill="white" fill-opacity="0.04"/>
<line id="Line 1" y1="127" x2="256" y2="127" stroke="#101010" stroke-width="2"/>
<path id="Ellipse 54" d="M180 128C180 163.249 174.138 195.114 164.698 218.13C159.977 229.641 154.381 238.889 148.217 245.245C142.057 251.597 135.395 255 128.5 255C121.605 255 114.943 251.597 108.783 245.245C102.619 238.889 97.0232 229.641 92.3021 218.13C82.862 195.114 77 163.249 77 128C77 92.7511 82.862 60.8858 92.3021 37.8698C97.0232 26.3594 102.619 17.1106 108.783 10.755C114.943 4.40252 121.605 1 128.5 1C135.395 1 142.057 4.40252 148.217 10.755C154.381 17.1106 159.977 26.3594 164.698 37.8698C174.138 60.8858 180 92.7511 180 128Z" stroke="#101010" stroke-width="2"/>
</g>
</svg>
