<svg width="32" height="32" viewBox="0 0 32 32" fill="none" xmlns="http://www.w3.org/2000/svg">
<g id="User / Fill">
<path id="Vector" d="M28.9875 26.4999C27.1216 23.2856 24.1349 20.873 20.6 19.7249C22.2943 18.7173 23.611 17.1814 24.3478 15.3529C25.0845 13.5245 25.2006 11.5047 24.6782 9.60396C24.1557 7.70316 23.0236 6.02648 21.4558 4.83148C19.8881 3.63647 17.9713 2.98926 16 2.98926C14.0287 2.98926 12.1119 3.63647 10.5442 4.83148C8.97638 6.02648 7.8443 7.70316 7.32184 9.60396C6.79939 11.5047 6.91545 13.5245 7.6522 15.3529C8.38896 17.1814 9.70565 18.7173 11.4 19.7249C7.86512 20.873 4.87842 23.2856 3.0125 26.4999C2.92089 26.6506 2.87244 26.8235 2.87244 26.9999C2.87244 27.1762 2.92089 27.3492 3.0125 27.4999C3.09797 27.6531 3.22321 27.7805 3.37501 27.8685C3.52681 27.9565 3.69954 28.0019 3.875 27.9999H28.125C28.3005 28.0019 28.4732 27.9565 28.625 27.8685C28.7768 27.7805 28.902 27.6531 28.9875 27.4999C29.0791 27.3492 29.1276 27.1762 29.1276 26.9999C29.1276 26.8235 29.0791 26.6506 28.9875 26.4999Z" fill="white"/>
</g>
</svg>
